# xmcd CD database file
#
# Track frame offsets:
#	150
#	16590
#	34145
#	52863
#	68304
#	82445
#	97815
#	116928
#	133106
#	150426
#	167394
#	183147
#	198312
#	216315
#	229393
#	245831
#
# Disc length: 3475 seconds
#
# Revision: 0
# Processed by: cddbd v1.5.1PL2 Copyright (c) Steve Scherf et al.
# Submitted via: CDex 1.51
#
DISCID=cf0d9110
DTITLE=藤圭子 - 圭子の夢は夜ひらく
DYEAR=2000
DGENRE=Pop
TTITLE0=新宿の女
TTITLE1=女のブルース
TTITLE2=圭子の夢は夜ひらく
TTITLE3=命預けます
TTITLE4=女は恋に生きてゆく
TTITLE5=京都から博多まで
TTITLE6=別れの旅
TTITLE7=明日から私は
TTITLE8=私は京都へ帰ります
TTITLE9=はしご酒
TTITLE10=京都ブルース
TTITLE11=生きてるだけの女
TTITLE12=面影平野
TTITLE13=赤坂の夜は更けて
TTITLE14=暗い港のブルース
TTITLE15=棄てるものがあるうちはいい
EXTD=YEAR: 2000
EXTT0=
EXTT1=
EXTT2=
EXTT3=
EXTT4=
EXTT5=
EXTT6=
EXTT7=
EXTT8=
EXTT9=
EXTT10=
EXTT11=
EXTT12=
EXTT13=
EXTT14=
EXTT15=
PLAYORDER=
